inDegrees=no
num_controls=7
num_derivatives=13
num_iterations=110
num_multipliers=7
num_parameters=0
num_slacks=7
num_states=26
objective=4.645183
objective_accelerations=0.629724
objective_balance=0.056674
objective_effort=0.476797
objective_height=3.418958
objective_ligament=0.063030
solver_duration=1188.791091
status=Solve_Succeeded
success=true
DataType=double
version=3
OpenSimVersion=4.4-2022-07-23-0e9fedc
endheader
time	/jointset/ground_pelvis/pelvis_tilt/value	/jointset/ground_pelvis/pelvis_tx/value	/jointset/ground_pelvis/pelvis_ty/value	/jointset/hip_l/hip_flexion_l/value	/jointset/hip_l/hip_adduction_l/value	/jointset/hip_l/hip_rotation_l/value	/jointset/back/lumbar_extension/value	/jointset/patellofemoral_l/patellar_flexion_l/value	/jointset/knee_l/knee_flexion_l/value	/jointset/knee_l/knee_adduction_l/value	/jointset/knee_l/knee_rotation_l/value	/jointset/ankle_l/ankle_angle_l/value	/jointset/subtalar_l/subtalar_angle_l/value	/jointset/ground_pelvis/pelvis_tilt/speed	/jointset/ground_pelvis/pelvis_tx/speed	/jointset/ground_pelvis/pelvis_ty/speed	/jointset/hip_l/hip_flexion_l/speed	/jointset/hip_l/hip_adduction_l/speed	/jointset/hip_l/hip_rotation_l/speed	/jointset/back/lumbar_extension/speed	/jointset/patellofemoral_l/patellar_flexion_l/speed	/jointset/knee_l/knee_flexion_l/speed	/jointset/knee_l/knee_adduction_l/speed	/jointset/knee_l/knee_rotation_l/speed	/jointset/ankle_l/ankle_angle_l/speed	/jointset/subtalar_l/subtalar_angle_l/speed	/forceset/tau_hip_flexion_l	/forceset/tau_hip_adduction_l	/forceset/tau_hip_rotation_l	/forceset/tau_knee_flexion_l	/forceset/tau_ankle_angle_l	/forceset/tau_subtalar_angle_l	/forceset/tau_lumbar_extension	lambda_cid13_p0	lambda_cid13_p1	lambda_cid13_p2	lambda_cid13_p3	lambda_cid13_p4	lambda_cid13_p5	lambda_cid14_p0	/jointset/ground_pelvis/pelvis_tilt/accel	/jointset/ground_pelvis/pelvis_tx/accel	/jointset/ground_pelvis/pelvis_ty/accel	/jointset/hip_l/hip_flexion_l/accel	/jointset/hip_l/hip_adduction_l/accel	/jointset/hip_l/hip_rotation_l/accel	/jointset/back/lumbar_extension/accel	/jointset/patellofemoral_l/patellar_flexion_l/accel	/jointset/knee_l/knee_flexion_l/accel	/jointset/knee_l/knee_adduction_l/accel	/jointset/knee_l/knee_rotation_l/accel	/jointset/ankle_l/ankle_angle_l/accel	/jointset/subtalar_l/subtalar_angle_l/accel	gamma_cid13_p0	gamma_cid13_p1	gamma_cid13_p2	gamma_cid13_p3	gamma_cid13_p4	gamma_cid13_p5	gamma_cid14_p0
1	-0.3152908993865945	-0.02086047069646121	0.4317556328074993	2.094395096485521	-0.2413032067889292	0.06240415704727321	-0.4363320614245318	1.9640962452757	1.96409624527572	0.1745312572333383	0.1745231848211369	0.436332275764238	0.1385881903069967	-0.01097332147585664	0.0006420160581821711	-0.004893804114852035	0.02266452581205513	0.0008000202217398163	0.005241614964289302	-6.813935154671e-07	0.009693291393377823	0.009693291393377395	-0.00182739594104486	-6.899599178233501e-06	-0.001631607855947271	0.0004405818167983961	-0.2366965731699831	-0.001697741412106648	-0.06718270392067308	-0.5124695303878336	0.06827925436982435	0.02191036185298492	0.2383840090962091	-26.06960311797461	4.625881267273545	-12.07909451728807	21.70249787843623	-746.0660079584942	-55.42287665425151	-0.0297040414784425	-1.380475523670222	-0.6785500200970703	2.185263360590737	-4.892114554512017	0.06314267428475713	-0.662146087725461	0.04055535821020072	-6.831054180804109	-6.831054180804335	-1.219411806459374	-0.0210217737039939	-0.8409576920966912	-0.2284958619250541	-2.490396718529343e-09	9.633925355539709e-09	1.720799185426968e-08	5.103199353921206e-09	2.576440068041383e-09	4.738341051244755e-08	-2.336949310050699e-09
1.01	-0.3154679165849533	-0.02088794581531552	0.431816561770924	2.094373760845738	-0.241291635368141	0.06242828967968821	-0.4363310222398011	1.963850641899073	1.96385064189907	0.1744474717357951	0.1745224208785111	0.4362746689474813	0.1385820950668352	-0.02431151954696014	-0.00613687967238444	0.01713223517864013	-0.02717525817415587	0.001505373529086584	-0.0004322339243284147	0.0001699740588614489	-0.05891416659569644	-0.05891416659570344	-0.01494644611708961	-0.0001395958543549424	-0.009868364666417405	-0.001663685716598256	-0.238766987641046	-0.001467183641140172	-0.06710340059978866	-0.5124049925216783	0.06665976482160635	0.02192862575576193	0.2400020234176632	-26.70287191228952	4.727425535235413	-12.09367905412776	22.29991017840699	-747.6409961859973	-55.35690540445118	-0.02969384630329095	-1.29269662205346	-0.6775270244636961	2.219167785516923	-5.066446081896935	0.07291140782906601	-0.5225686166664945	-0.000461049197701611	-6.890626727653705	-6.890626727654545	-1.360646503274099	-0.008417866070382423	-0.81182834211114	-0.2019777558943866	3.438880832956128e-09	-7.337502742563764e-08	-9.169893265422728e-08	4.114337680019846e-08	-1.078974224693576e-08	-3.425759716708485e-07	2.541181727982453e-08
1.02	-0.3157747566986653	-0.02098320342646084	0.4320993298416408	2.09384672021367	-0.2412732744645052	0.06239517095778027	-0.4363294328359503	1.962915956918616	1.962915956918597	0.1742319967603941	0.1745205251104198	0.4361353358292472	0.13855484003997	-0.03693790454699803	-0.0129144824000191	0.03947401734359121	-0.07847647260922783	0.002157916791211321	-0.00620865590240703	0.0001093619932009465	-0.1281230293725564	-0.1281230293725682	-0.02816529149701949	-0.0002332646953684872	-0.01797686814044593	-0.003791375523889526	-0.2408374021121605	-0.001236625870174338	-0.06702409727897948	-0.5123404546555215	0.06504027527339917	0.02194688965854407	0.2416200377390691	-27.33746061572459	4.824781670620802	-12.1025483024834	22.96633753267001	-749.1941821740165	-55.31115939550897	-0.02974074101136465	-1.238112909457213	-0.6782914195106481	2.24841193488249	-5.184400644284059	0.05258066524034476	-0.682660705617624	-0.005698145401915622	-6.951335138361159	-6.951335138361037	-1.239370847236393	-0.01321629087135805	-0.8153070248083089	-0.2331803167039616	2.723461877638702e-08	-1.619802372271962e-07	-2.083750336527825e-07	2.24318629995494e-08	-3.699470774911851e-08	-7.423437073799052e-07	5.167907594835402e-08
1.03	-0.3162044312431321	-0.02114608801910026	0.432607026253334	2.092799747523153	-0.241248665804801	0.06230380884699288	-0.4363289823907026	1.961286373409407	1.961286373409361	0.173883860746622	0.1745178640004025	0.4359154962433149	0.1385061469884475	-0.04888476109350339	-0.01964745734827721	0.062111899861985	-0.1311300522144917	0.002751435215703947	-0.01208186684714587	-2.405999078799998e-06	-0.1978741435754548	-0.1978741435754631	-0.04147380813613081	-0.0002919927365152351	-0.02597554586231217	-0.005958960704701755	-0.2431650529587227	-0.0009601461911697057	-0.06677923659184805	-0.5121215714552115	0.06371040745252354	0.02194278587664729	0.2434999499902291	-27.86917557203963	4.911878377393119	-12.10754144336961	23.33064059251713	-750.7683957753254	-55.26088428988735	-0.02979941954026503	-1.156120823325042	-0.6685531999431635	2.278458814595781	-5.337621181522535	0.0609257553996456	-0.542341694079042	-0.01138608905078044	-6.999085972450222	-6.999085972449766	-1.378321183664995	-0.001046510762895068	-0.7898237785441642	-0.2102281283842014	5.121266754014399e-08	-2.50642551692228e-07	-3.251304119624608e-07	3.161658471890554e-09	-6.333068124300751e-08	-1.142211528329021e-06	7.793121718911466e-08
